<?xml version="1.0" standalone="no"?>
<!DOCTYPE svg PUBLIC "-//W3C//DTD SVG 20010904//EN"
 "http://www.w3.org/TR/2001/REC-SVG-20010904/DTD/svg10.dtd">
<svg version="1.0" xmlns="http://www.w3.org/2000/svg"
 width="512.000000pt" height="512.000000pt" viewBox="0 0 512.000000 512.000000"
 preserveAspectRatio="xMidYMid meet">
<metadata>
Created by potrace 1.11, written by Peter Selinger 2001-2013
</metadata>
<g transform="translate(0.000000,512.000000) scale(0.100000,-0.100000)"
fill="#000000" stroke="none">
<path d="M0 2560 l0 -2560 2560 0 2560 0 0 2560 0 2560 -2560 0 -2560 0 0
-2560z m4920 -5 l0 -2355 -2355 0 -2355 0 0 2355 0 2355 2355 0 2355 0 0
-2355z"/>
<path d="M1210 4260 l0 -150 1100 0 c605 0 1100 -3 1100 -6 0 -3 -508 -733
-1130 -1621 l-1130 -1615 0 -84 0 -84 1410 0 1410 0 0 150 0 150 -1174 2
-1175 3 1135 1618 1134 1619 0 84 0 84 -1340 0 -1340 0 0 -150z"/>
</g>
</svg>
